<?xml version="1.0" encoding="UTF-8"?><svg id="uuid-33bbd337-f109-4d9e-a536-f773d67eb128" xmlns="http://www.w3.org/2000/svg" viewBox="0 0 539.11 411.23"><path d="m0,222.69v-35.47c4.82,0,9.57.05,14.32,0,14.09-.16,20.48-6.55,20.51-20.59.06-34.83-.03-69.66.21-104.49.04-6.28.86-12.68,2.26-18.8C43.1,18.13,61.01,2.83,87.97.58c10.7-.89,21.54-.15,32.61-.15v33.88c-1.23.15-2.47.39-3.73.44-3.99.16-8.01.04-11.98.4-16.79,1.53-26.3,11.32-27.01,28.26-.43,10.32-.22,20.66-.23,30.99-.02,22.83.06,45.67-.05,68.5-.02,5.15-.34,10.34-1.07,15.44-1.84,12.94-8.86,21.94-22.43,26.65,20.05,6.79,23.4,22.44,23.5,39.64.17,31.33.04,62.66.07,94,0,3.66-.05,7.37.46,10.98,2.38,16.6,12.45,25,30.38,25.53,3.95.12,7.91.02,12.12.02v35.11c-16.34.19-32.51,1.02-48.12-4.21-22.63-7.58-33.66-24.41-36.58-47.25-.82-6.42-1.01-12.96-1.03-19.44-.1-31.83-.04-63.66-.05-95.5,0-14.54-6-20.77-20.41-21.15-4.64-.12-9.29-.02-14.41-.02Z"/><path d="m539.11,187.66v35.47c-4.86,0-9.47-.08-14.08.02-13.13.28-19.52,6.53-19.69,19.88-.22,16.83-.07,33.66-.08,50.49,0,17.83.22,35.66-.12,53.49-.13,6.94-.83,14.02-2.44,20.76-5.74,24.11-23.35,39.09-49.38,41.83-11.19,1.18-22.5,1.12-34.05,1.63v-35.42c1.53-.07,3.11-.14,4.69-.22,4.32-.21,8.67-.16,12.96-.67,15.04-1.8,23.96-11.08,25.33-26.23.34-3.81.43-7.65.45-11.48.12-32.49.05-64.99.33-97.48.14-15.64,5.23-28.56,22.81-34.33-17.69-5.88-22.71-18.95-22.84-34.68-.27-31.99-.15-63.99-.35-95.98-.03-5.8-.18-11.71-1.33-17.36-2.59-12.72-11.25-20.25-24.19-21.58-5.77-.59-11.6-.62-17.76-.93V.21c18.83-.26,37.55-1.43,55.05,6.87,18.02,8.54,26.86,23.71,29.69,42.81.83,5.58,1.07,11.28,1.09,16.93.1,32.33.04,64.66.07,96.98,0,2.66,0,5.36.44,7.97,1.79,10.78,7.46,15.65,18.36,15.88,4.82.1,9.65.02,15.04.02Z"/><g><path d="m108.34,344.23c53.94-92.77,107.58-185.04,161.56-277.89,6.32,10.76,12.42,21.06,18.44,31.42,11.28,19.41,22.6,38.8,33.67,58.33,1.54,2.71,2.24,6.15,2.43,9.31.37,6.28.11,12.6-.86,19.3-17.74-30.48-35.48-60.97-53.64-92.17-19.38,33.32-38.46,66.14-58.03,99.79,37.88,0,75.01.6,112.39.6v12.37c-44.6,0-89.51,0-135.18,0,27.04,46.52,54.04,92.9,80.81,138.94,18.14-31.18,35.92-62.08,53.69-92.62.31.09.61.17.92.26,0,7.75.1,15.49-.09,23.24-.04,1.52-1.1,3.08-1.91,4.49-9.82,16.98-19.68,33.94-29.85,51.45h115.65c-.76-1.59-1.51-3.17-2.63-5.52,4.67,0,9.04-.14,13.39.11,1.01.06,2.25,1.25,2.85,2.24,3.19,5.24,6.22,10.58,9.58,16.35H108.34Z"/><path d="m428.89,339.87c-4.25.13-3.87,1.79-8.17,1.79-.97-.28-5.16-1.93-4.77-2.04-3.11-.03.36-.79-2.47-2.21.68-.6-.77-2.81-.77-2.81-4.68-4.45.26-1.62-4.68-4.45-19.14-33.46-37.99-66.41-57.32-100.2-18.97,32.79-10.45,18.98-29.17,51.34-4.11-2.38,6.05-27.36,2.06-29.67,22.33-38.6,4.36-6.45,27.23-45.99"/><path d="m350.85,205.62q-19.72-.33-36.3-.33c-22.45.05-45.17-.2-67.62-.4-3.11-.03-6.31-.24-9.13-1.66-5.62-2.82-10.32-6.72-15.63-10.92,35.27-.09,69.9.33,106,.24-19.5-33.25-38.92-66.22-58.22-100.02-18.97,32.79-37.84,64.89-56.55,97.24-4.11-2.38-7.42-4.28-11.42-6.59,22.33-38.6,45.06-77.3,67.93-116.84"/></g></svg>