<svg xmlns="http://www.w3.org/2000/svg" xmlns:xlink="http://www.w3.org/1999/xlink" viewBox="0 0 469.7 123.2" xmlns:v="https://vecta.io/nano"><g fill="#002e56"><use xlink:href="#B"/><path d="M88.5 76.2V25.7h-20V12.4h55.6v13.3h-20v50.5z"/><use xlink:href="#C"/><use xlink:href="#D"/><use xlink:href="#E"/><use xlink:href="#F"/><use xlink:href="#G"/><use xlink:href="#H"/><use xlink:href="#I"/><use xlink:href="#J"/><use xlink:href="#G" x="143.2"/></g><use xlink:href="#K" fill="#0091d0"/><use xlink:href="#L" fill="#f7941d"/><use xlink:href="#M" fill="#002e56"/><g fill="#061b31"><use xlink:href="#B"/><path d="M88.5 76.2V25.7h-20V12.4h55.6v13.3h-20v50.5z"/><use xlink:href="#C"/><use xlink:href="#D"/><use xlink:href="#E"/><use xlink:href="#F"/><use xlink:href="#G"/><use xlink:href="#H"/><use xlink:href="#I"/><use xlink:href="#J"/><use xlink:href="#G" x="143.2"/></g><use xlink:href="#K" fill="#0794d2"/><use xlink:href="#L" fill="#f89721"/><g fill="#061b31"><use xlink:href="#M"/><use xlink:href="#N"/><path d="M337.8 101.9l-7.1 14.4h-2.6l-2.1-11.1-5.7 11.1h-2.6l-2.6-14.4h2.4l2 11.4 5.9-11.4h2.2l2.2 11.4 5.5-11.4h2.5z"/><use xlink:href="#O"/><use xlink:href="#P"/><path d="M384 95.3l-1.4 8.6c1.4-1.3 3.4-2.3 5.4-2.3 3.5 0 5.5 2.5 5 6l-1.4 8.8h-2.4l1.4-8.7c.4-2.7-1-3.9-3.2-3.9-2 0-4.1 1.5-5.3 3l-1.5 9.6h-2.4l3.3-21h2.5zm18.1 21.3c-4.2 0-6.8-3.3-6.1-7.7.7-4.3 4.2-7.4 8.2-7.4 2.8 0 4.5 1.4 5.5 2.8l.4-2.5h2.2l-2.3 14.4h-2.2l.4-2.5c-1.4 1.7-3.4 2.9-6.1 2.9zm.4-2.2c2.6 0 4.9-1.7 6-3.6l.6-3.6c-.4-1.8-2.1-3.5-4.6-3.5-2.9 0-5.5 2-6.1 5.3-.5 3.3 1.4 5.4 4.1 5.4zm21.8-12.9c3.5 0 5.5 2.5 5 6l-1.4 8.8h-2.4l1.4-8.7c.4-2.7-1-3.9-3.2-3.9-2 0-4.1 1.5-5.3 2.9l-1.5 9.6h-2.4l2.3-14.4h2.1l-.4 2.2c1.4-1.3 3.5-2.5 5.8-2.5zm13.4 21.7c-2.6 0-4.6-.6-6-1.5l.4-2.3c1.4 1 3.1 1.6 5.4 1.6 3.1 0 5.8-1.4 6.4-4.8l.3-2c-1.2 1.3-3.2 2.5-5.9 2.5-4.2 0-6.8-3.3-6.1-7.7.7-4.3 4.2-7.4 8.2-7.4 2.8 0 4.4 1.3 5.4 3l.4-2.6h2.2l-2.3 14.5c-.6 4.8-4.5 6.7-8.4 6.7zm1-8.8c2.6 0 4.9-1.7 6-3.4l.6-3.8c-.5-1.8-2.1-3.4-4.7-3.4-2.9 0-5.5 2-6.1 5.3-.5 3.2 1.5 5.3 4.2 5.3zm20.4-12.9c5.5 0 7 4.6 5.4 8.7H453c-.2 3.1 2.6 4.2 5.2 4.2a11.62 11.62 0 0 0 5.1-1.2l-.4 2.4c-1.4.7-3.2 1-5.2 1-3.7 0-7.8-2.5-7-7.6.9-5 4.9-7.5 8.4-7.5zm.1 2.2c-2.6 0-5.1 1.6-5.7 4.4h9.4c.3-1.7-.1-4.4-3.7-4.4z"/><use xlink:href="#B"/><path d="M88.5 76.2V25.7h-20V12.4h55.6v13.3h-20v50.5z"/><use xlink:href="#C"/><use xlink:href="#D"/><use xlink:href="#E"/><use xlink:href="#F"/><use xlink:href="#G"/><use xlink:href="#H"/><use xlink:href="#I"/><use xlink:href="#J"/><use xlink:href="#G" x="143.2"/></g><use xlink:href="#K" fill="#0794d2"/><use xlink:href="#L" fill="#f89721"/><g fill="#061b31"><use xlink:href="#M"/><use xlink:href="#N"/><path d="M330.7 116.3h-2.6l-2.1-11.1-5.7 11.1h-2.6l-2.6-14.4h2.4l2 11.4 5.9-11.4h2.2l2.2 11.4 5.5-11.4h2.6l-7.2 14.4z"/><use xlink:href="#O"/><use xlink:href="#P"/><path d="M382.6 103.8c1.4-1.3 3.4-2.3 5.4-2.3 3.5 0 5.5 2.5 5 6l-1.4 8.8h-2.4l1.4-8.7c.4-2.7-1-3.9-3.2-3.9-2 0-4.1 1.5-5.3 3l-1.5 9.6h-2.4l3.3-21h2.4l-1.3 8.5zm19.5 12.8c-4.2 0-6.8-3.3-6.1-7.7.7-4.3 4.2-7.4 8.2-7.4 2.8 0 4.5 1.4 5.5 2.8l.4-2.5h2.2l-2.3 14.4h-2.2l.4-2.5c-1.4 1.7-3.4 2.9-6.1 2.9zm.4-2.2c2.6 0 4.9-1.7 6-3.6l.6-3.6c-.4-1.8-2.1-3.5-4.6-3.5-2.9 0-5.5 2-6.1 5.3s1.4 5.4 4.1 5.4zm21.7-12.9c3.5 0 5.5 2.5 5 6l-1.4 8.8h-2.4l1.4-8.7c.4-2.7-1-3.9-3.2-3.9-2 0-4.1 1.5-5.3 2.9l-1.5 9.6h-2.4l2.3-14.4h2.1l-.4 2.2c1.5-1.3 3.5-2.5 5.8-2.5zm13.5 21.7c-2.6 0-4.6-.6-6-1.5l.4-2.3c1.4 1 3.1 1.6 5.4 1.6 3.1 0 5.8-1.4 6.4-4.8l.3-2c-1.2 1.3-3.2 2.5-5.9 2.5-4.2 0-6.8-3.3-6.1-7.7.7-4.3 4.2-7.4 8.2-7.4 2.8 0 4.4 1.3 5.4 3l.4-2.6h2.2l-2.3 14.5c-.6 4.8-4.5 6.7-8.4 6.7zm1-8.8c2.6 0 4.9-1.7 6-3.4l.6-3.8c-.5-1.8-2.1-3.4-4.7-3.4-2.9 0-5.5 2-6.1 5.3-.5 3.2 1.4 5.3 4.2 5.3zm20.4-12.9c5.5 0 7 4.6 5.4 8.7H453c-.2 3.1 2.6 4.2 5.2 4.2a11.62 11.62 0 0 0 5.1-1.2l-.4 2.4c-1.4.7-3.2 1-5.2 1-3.7 0-7.8-2.5-7-7.6.9-5 4.9-7.5 8.4-7.5zm0 2.2c-2.6 0-5.1 1.6-5.7 4.4h9.4c.4-1.7-.1-4.4-3.7-4.4z"/></g><defs ><path id="B" d="M207.4 44.1l26.3 32.1h-17.1l-24.5-29.9v29.9h-15.5V12.4h15.5v28.9h.1l19.6-28.9h17z"/><path id="C" d="M127.4 76.2V12.4h45.4v12.8h-30.1v13h28.7v11.7h-28.7v13.5h30.6v12.8z"/><path id="D" d="M469.7 42a2.22 2.22 0 0 1-2.2 2.2 2.22 2.22 0 0 1-2.2-2.2 2.22 2.22 0 0 1 2.2-2.2 2.22 2.22 0 0 1 2.2 2.2zm-3.9 0c0 1 .7 1.7 1.7 1.7.9 0 1.7-.8 1.7-1.7 0-1-.7-1.7-1.7-1.7s-1.7.7-1.7 1.7zm1.3 1.1h-.5v-2.2c.2 0 .5-.1.8-.1.4 0 .6.1.7.2s.2.3.2.5c0 .3-.2.4-.4.5h0c.2.1.3.2.4.5s.1.4.2.5h-.5c-.1-.1-.1-.3-.2-.5 0-.2-.2-.3-.5-.3h-.2v.9zm.1-1.2h.2c.3 0 .5-.1.5-.3s-.1-.3-.5-.3h-.3v.6z"/><path id="E" d="M249.5 76.6h-.6 0c-2 0-4.1-.3-5.8-.9-5.7-1.7-9.2-5.7-9.2-10.9v-.5h2.3v.5c0 4 2.8 7.2 7.5 8.6a18.36 18.36 0 0 0 5.3.8h.5c1.5 0 3.1-.2 4.6-.7 4.4-1.3 6.9-4.1 6.9-7.7 0-5.8-6.1-6.6-12.5-7.4h-.2c-6.8-.8-13.8-1.7-13.8-9 0-4.5 3.1-8 8.3-9.5 1.6-.5 3.5-.7 5.6-.7 1.9 0 3.8.3 5.6.7 5.5 1.6 8.7 5.1 8.7 9.6v.5h-2.3v-.5c0-4.8-4.8-6.7-6.9-7.3-3.5-1-7.2-.9-9.9-.1-4.2 1.2-6.5 3.8-6.5 7.3 0 4.9 4.9 5.8 11.8 6.7 7.2.9 14.6 1.8 14.6 9.7 0 4.7-3.1 8.3-8.6 9.9-1.9.6-3.7.9-5.4.9z"/><path id="F" d="M273.7 88.7h-2.6l5.5-12.7-15.3-36.2h2.6l14 33.4 14.8-33.4h2.6l-21.6 48.9z"/><path id="G" d="M309.2 76.6h-.6 0c-2 0-4.1-.3-5.9-.9-5.7-1.7-9.2-5.7-9.2-10.9v-.5h2.3v.5c0 4 2.8 7.2 7.5 8.6a18.36 18.36 0 0 0 5.3.8h.5c1.5 0 3.1-.2 4.6-.7 4.4-1.3 6.9-4.1 6.9-7.7 0-5.8-6.1-6.6-12.5-7.4h-.2c-6.8-.8-13.8-1.7-13.8-9 0-4.5 3.1-8 8.2-9.5 1.6-.5 3.5-.7 5.6-.7 1.9 0 3.8.3 5.6.7 5.5 1.6 8.7 5.1 8.7 9.6v.5h-2.3v-.5c0-4.8-4.8-6.7-6.9-7.3-3.5-1-7.2-.9-9.9-.1-4.2 1.2-6.5 3.8-6.5 7.3 0 4.9 4.9 5.8 11.8 6.7 7.2.9 14.6 1.8 14.6 9.7 0 4.7-3.1 8.3-8.6 9.9-1.6.6-3.4.9-5.2.9z"/><path id="H" d="M338 76.4c-7.8 0-9.4-4.6-9.4-12.5V42.2H322v-2.3h6.7v-7.4h2.3v7.4h9.8v2.3H331V64c0 8 1.3 11 9.8 10.1l.5-.1.2 2.3-.5.1h-3z"/><path id="I" d="M358 76.5c-7.8 0-13.8-4-16.6-11-.9-2.2-1.4-4.8-1.4-7.5a20.42 20.42 0 0 1 1.4-7.5c2.8-7 8.8-11 16.6-11 5.1 0 9.5 1.7 12.7 5 3.3 3.4 5.2 8.1 5.1 13.4v.5h-33.4c.1 2.2.5 4.3 1.2 6.2 2.4 6 7.6 9.5 14.4 9.5 6.5 0 11.5-3.1 14-8.6l.1-.3h2.5l-.3.7c-2.8 6.8-8.7 10.6-16.3 10.6zm-15.5-20.3h31c-.8-8.6-7-14.4-15.5-14.4-6.8 0-12 3.4-14.4 9.5-.6 1.6-1 3.2-1.1 4.9z"/><path id="J" d="M433.1 76.2h-2.3V56c-.1-4.6-1.2-8.3-3.3-10.6-2.1-2.2-4.9-3.4-8.4-3.4h-.1c-2.5 0-6.1.7-8.6 3.8-2 2.5-3 5.9-3 10.6v20h-2.3v-20c0-4.8-1.2-8.5-3.4-11-2-2.2-4.9-3.4-8.4-3.4h-.3c-2.5 0-6.1.7-8.6 3.8-2 2.3-3 5.7-3 10v20.5h-2.3V39.7h2.3V46c.4-.7.8-1.3 1.2-1.8 3.2-3.8 7.4-4.6 10.4-4.6h.1c4.2 0 7.7 1.4 10.1 4.1 1.2 1.3 2.2 3.2 2.8 5.2.6-1.9 1.6-3.6 2.5-4.7 3.1-3.8 7.3-4.6 10.4-4.6h.1c4.2 0 7.7 1.4 10.1 4.1 2.6 2.9 3.9 7 4 12.2v20.3z"/><path id="K" d="M17.6 16.7c-4.9 0-8.4.3-10.2.8-.1 0-.1 0-.2.1-3.2.7-5.1 2.6-5.7 5.6-.8 3.9 3.7 8.4 3.8 8.4.2.2 27.4 23.4 29.9 25.5 2.6 2.3 6.3 3.5 8.3 2.6.8-.4 1.5-.8 2-1.2-.8.2-1.6.4-2.4.4h0a7.16 7.16 0 0 1-4.6-1.6c-5.1-4-11-16-12-18.2l-.4-.9c-1.6-3.6-3.8-8.6-2.5-15 .6-3 1.5-5.2 2-6.1-1.3-.2-4.5-.4-8-.4z"/><path id="L" d="M18.5 15l8 .3 1 .1c3.9.4 9.3 1 14.3 5.3 2.3 2 3.7 3.9 4.3 4.8 1.5-2.3 7.5-12 8.5-16.1 0-.1 0-.1.1-.2 1-3.1.3-5.7-2-7.7C51.6.5 49.9 0 47.8 0c-2.3 0-4.3.6-4.3.6-.3.1-33.9 12.2-37 13.3-2.9 1-6.1 3.4-6.4 5.9-.1.9-.1 1.7 0 2.3.5-2.1 1.9-4.3 4.6-5.4 3.4-1.4 9.4-1.7 13.8-1.7z"/><path id="M" d="M28.2 39c1.3 2.5 6.5 12.5 9.6 15.5l.2.2c.6.6 2.3 2.6 5.3 2.6.8 0 1.6-.1 2.4-.4 3.8-1.2 5.4-7.4 5.4-7.5.1-.3 6.5-35.4 7.2-38.7.6-3.1.1-6.9-1.9-8.5-.7-.5-1.4-.9-2-1.1 1.6 1.5 2.8 3.8 2.4 6.7-.9 6.4-8.4 17.6-9.8 19.5l-.6.8c-2.3 3.2-5.5 7.6-11.8 9.7-2.9.8-5.3 1.1-6.4 1.2z"/><path id="N" d="M300.1 116.6c-6.8 0-10.2-5.5-9.4-11 .9-5.4 5.3-10.7 12.6-10.7 6.8 0 10.2 5.5 9.4 11-.9 5.4-5 10.7-12.6 10.7zm.1-2.4c5.8 0 9.2-4.1 9.9-8.5.6-4-1.3-8.5-7-8.5-5.8 0-9.2 4.1-9.9 8.5-.6 4 1.4 8.5 7 8.5z"/><path id="O" d="M348.1 101.5c3.5 0 5.5 2.5 5 6l-1.4 8.8h-2.4l1.4-8.7c.4-2.7-1-3.9-3.1-3.9-2 0-4.1 1.5-5.3 2.9l-1.5 9.6h-2.4l2.3-14.4h2.1l-.4 2.2c1.4-1.3 3.4-2.5 5.7-2.5z"/><path id="P" d="M372.5 101.5c1.7 0 3.2.5 4.4 1.3l-.4 2.2c-1-1-2.4-1.3-3.9-1.3-2.9 0-6.1 1.4-6.7 5.3-.6 3.7 1.8 5.3 4.9 5.3 1.6 0 3.1-.5 4.6-1.3l-.4 2.5c-1.5.7-3 1-4.7 1-4 0-7.5-2.5-6.7-7.8.8-5.1 5.2-7.2 8.9-7.2z"/></defs></svg>