<?xml version="1.0" encoding="UTF-8"?>
<svg id="uuid-510453e6-9932-407f-97d2-1179164d1f30" xmlns="http://www.w3.org/2000/svg"
    viewBox="0 0 1307.71 411.23">
    <style>
        @media (prefers-color-scheme: dark) {
            path {
                fill: #fff;
            }
        }
    </style>
    <path
        d="m415.61,95.88c1.59-.09,2.91-.22,4.22-.22,35.31,0,70.62-.1,105.93.06,23.15.11,45.36,4.7,65.77,16.01,32.48,17.99,49.5,46.04,52.14,82.77,1.85,25.76-2.82,50.14-18.19,71.59-17.23,24.05-41.51,36.93-69.89,42.54-10.06,1.99-20.46,3.01-30.72,3.12-34.97.38-69.95.15-104.93.15-1.32,0-2.64-.11-4.33-.19V95.88Zm73.28,158.71c12.25,0,23.93.61,35.53-.13,23.09-1.48,39.21-14.28,43.76-34.92,1.66-7.52,1.89-15.56,1.45-23.29-1.15-20.11-13.57-35.48-32.56-40.95-15.81-4.56-32-1.69-48.18-2.57v101.86Z" />
    <path
        d="m849.77,256.4v55.19h-179.65V95.98h175.54v54.79h-103.24v24.85h90.75v53.1h-90.9v27.68h107.5Z" />
    <path
        d="m992.76,313.45c-42.44-73-84.36-145.09-126.93-218.32h6.3c25,0,50,.11,74.99-.1,4.22-.04,6.5,1.27,8.6,4.95,12.01,21.1,24.3,42.03,36.97,63.83,3.06-5.17,5.82-9.78,8.53-14.42,9.87-16.96,19.67-33.97,29.68-50.85.91-1.54,3.16-3.23,4.8-3.24,27-.2,54-.14,80.99-.12.61,0,1.22.21,2.7.47-42.18,72.56-84.1,144.65-126.62,217.81Z" />
    <path
        d="m0,223.12v-35.47c4.82,0,9.57.05,14.32,0,14.09-.16,20.48-6.55,20.51-20.59.06-34.83-.03-69.66.21-104.49.04-6.28.86-12.68,2.26-18.8C43.1,18.57,61.01,3.26,87.97,1.01c10.7-.89,21.54-.15,32.61-.15v33.88c-1.23.15-2.47.39-3.73.44-3.99.16-8.01.04-11.98.4-16.79,1.53-26.3,11.32-27.01,28.26-.43,10.32-.22,20.66-.23,30.99-.02,22.83.06,45.67-.05,68.5-.02,5.15-.34,10.34-1.07,15.44-1.84,12.94-8.86,21.94-22.43,26.65,20.05,6.79,23.4,22.44,23.5,39.64.17,31.33.04,62.66.07,94,0,3.66-.05,7.37.46,10.98,2.38,16.6,12.45,25,30.38,25.53,3.95.12,7.91.02,12.12.02v35.11c-16.34.19-32.51,1.02-48.12-4.21-22.63-7.58-33.66-24.41-36.58-47.25-.82-6.42-1.01-12.96-1.03-19.44-.1-31.83-.04-63.66-.05-95.5,0-14.54-6-20.77-20.41-21.15-4.64-.12-9.29-.02-14.41-.02Z" />
    <path
        d="m1307.71,187.66v35.47c-4.86,0-9.47-.08-14.08.02-13.13.28-19.52,6.53-19.69,19.88-.22,16.83-.07,33.66-.08,50.49,0,17.83.22,35.66-.12,53.49-.13,6.94-.83,14.02-2.44,20.76-5.74,24.11-23.35,39.09-49.38,41.83-11.19,1.18-22.5,1.12-34.05,1.63v-35.42c1.53-.07,3.11-.14,4.69-.22,4.32-.21,8.67-.16,12.96-.67,15.04-1.8,23.96-11.08,25.33-26.23.34-3.81.43-7.65.45-11.48.12-32.49.05-64.99.33-97.48.14-15.64,5.23-28.56,22.81-34.33-17.69-5.88-22.71-18.95-22.84-34.68-.27-31.99-.15-63.99-.35-95.98-.03-5.8-.18-11.71-1.33-17.36-2.59-12.72-11.25-20.25-24.19-21.58-5.77-.59-11.6-.62-17.76-.93V.21c18.83-.26,37.55-1.43,55.05,6.87,18.02,8.54,26.86,23.71,29.69,42.81.83,5.58,1.07,11.28,1.09,16.93.1,32.33.04,64.66.07,96.98,0,2.66,0,5.36.44,7.97,1.79,10.78,7.46,15.65,18.36,15.88,4.82.1,9.65.02,15.04.02Z" />
    <path
        d="m188.62,340.52c53.94-92.77,107.58-185.04,161.56-277.89,6.32,10.76,12.42,21.06,18.44,31.42,11.28,19.41,22.6,38.8,33.67,58.33,1.54,2.71,2.24,6.15,2.43,9.31.37,6.28.11,12.6-.86,19.3-17.74-30.48-35.48-60.97-53.64-92.17-19.38,33.32-38.46,66.14-58.03,99.79h112.39v13.44h-134.66c27.04,46.52,53.53,92.09,80.29,138.13,18.14-31.18,35.91-61.73,53.68-92.27.31.09.61.17.92.26,0,7.75.1,15.49-.09,23.24-.04,1.52-1.1,3.08-1.91,4.49-9.82,16.98-19.68,33.94-29.85,51.45h115.65c-.76-1.59-1.51-3.17-2.63-5.52,4.67,0,9.04-.14,13.39.11,1.01.06,2.25,1.25,2.85,2.24,3.19,5.24,6.22,10.58,9.58,16.35H188.62Z" />
</svg>