<svg width="175" height="55" viewBox="0 0 175 55" fill="none" xmlns="http://www.w3.org/2000/svg">
<g clip-path="url(#clip0_140_8)">
<path d="M55.6177 12.8235C55.8305 12.8114 56.0071 12.794 56.1824 12.794C60.9076 12.794 65.6329 12.7807 70.3581 12.8021C73.4561 12.8168 76.4283 13.4307 79.1596 14.9433C83.5061 17.3494 85.7838 21.101 86.1371 26.0134C86.3846 29.4587 85.7597 32.7194 83.7028 35.5882C81.3971 38.8048 78.1479 40.5274 74.35 41.2777C73.0038 41.5439 71.6121 41.6803 70.239 41.695C65.5593 41.7458 60.8782 41.7151 56.1971 41.7151C56.0205 41.7151 55.8438 41.7004 55.6177 41.6897V12.8235ZM65.4241 34.0502C67.0635 34.0502 68.6265 34.1317 70.1788 34.0328C73.2688 33.8348 75.426 32.1229 76.0349 29.3624C76.257 28.3566 76.2878 27.2813 76.2289 26.2475C76.075 23.5579 74.4129 21.5022 71.8717 20.7706C69.7559 20.1607 67.5894 20.5446 65.4241 20.4269V34.0502Z" fill="#2C6483"/>
<path d="M113.718 34.2922V41.6736H89.6766V12.8369H113.168V20.1647H99.3519V23.4883H111.496V30.5902H99.3319V34.2922H113.718Z" fill="#2C6483"/>
<path d="M132.853 41.9224C127.173 32.159 121.564 22.5173 115.867 12.7231H116.71C120.055 12.7231 123.401 12.7379 126.745 12.7098C127.31 12.7044 127.615 12.8796 127.896 13.3718C129.503 16.1938 131.148 18.9931 132.843 21.9088C133.253 21.2173 133.622 20.6007 133.985 19.9802C135.306 17.7118 136.617 15.4368 137.957 13.1792C138.079 12.9733 138.38 12.7472 138.599 12.7459C142.212 12.7191 145.825 12.7272 149.437 12.7298C149.519 12.7298 149.601 12.7579 149.799 12.7927C144.154 22.4972 138.544 32.1389 132.854 41.9237L132.853 41.9224Z" fill="#2C6483"/>
<path d="M0 29.8412V25.0973C0.645021 25.0973 1.28067 25.1039 1.91633 25.0973C3.80188 25.0759 4.657 24.2212 4.66101 22.3434C4.66904 17.6851 4.657 13.0268 4.68911 8.36842C4.69447 7.5285 4.8042 6.67253 4.99155 5.85401C5.76772 2.48364 8.16446 0.436 11.7723 0.135073C13.2042 0.0160401 14.6548 0.115011 16.1362 0.115011V4.6463C15.9716 4.66636 15.8057 4.69846 15.6371 4.70514C15.1031 4.72654 14.5652 4.71049 14.0339 4.75864C11.787 4.96327 10.5144 6.27264 10.4194 8.53828C10.3618 9.91853 10.3899 11.3015 10.3886 12.683C10.3859 15.7364 10.3966 18.7912 10.3819 21.8446C10.3792 22.5334 10.3364 23.2275 10.2387 23.9096C9.99247 25.6403 9.05304 26.844 7.23708 27.4739C9.92021 28.382 10.3685 30.4751 10.3819 32.7756C10.4046 36.9658 10.3872 41.156 10.3913 45.3476C10.3913 45.8371 10.3846 46.3333 10.4528 46.8161C10.7713 49.0363 12.1189 50.1598 14.5183 50.2306C15.0469 50.2467 15.5768 50.2333 16.1402 50.2333V54.9291C13.9536 54.9545 11.7897 55.0655 9.70074 54.366C6.67235 53.3522 5.1963 51.1013 4.80554 48.0466C4.6958 47.1879 4.67038 46.3132 4.6677 45.4466C4.65432 41.1895 4.66235 36.9324 4.66101 32.6739C4.66101 30.7293 3.85808 29.896 1.92971 29.8452C1.30878 29.8292 0.686505 29.8425 0.00133822 29.8425L0 29.8412Z" fill="#2C6483"/>
<path d="M175 25.0986V29.8425C174.35 29.8425 173.733 29.8318 173.116 29.8452C171.359 29.8827 170.504 30.7186 170.481 32.5041C170.451 34.755 170.471 37.0059 170.47 39.2568C170.47 41.6415 170.5 44.0262 170.454 46.4109C170.437 47.3391 170.343 48.286 170.128 49.1874C169.359 52.412 167.003 54.4155 163.519 54.782C162.022 54.9398 160.508 54.9318 158.963 55V50.2627C159.168 50.2534 159.379 50.244 159.59 50.2333C160.169 50.2052 160.751 50.2119 161.325 50.1437C163.337 49.903 164.531 48.6618 164.714 46.6356C164.76 46.126 164.772 45.6124 164.775 45.1002C164.791 40.7548 164.781 36.4081 164.819 32.0627C164.838 29.9709 165.519 28.2429 167.871 27.4712C165.504 26.6848 164.832 24.9368 164.815 22.8329C164.779 18.5544 164.795 14.2746 164.768 9.99609C164.764 9.22037 164.744 8.42994 164.59 7.67428C164.243 5.97304 163.084 4.96594 161.353 4.78806C160.581 4.70915 159.8 4.70514 158.976 4.66368V0.0280707C161.496 -0.00670301 164.001 -0.163185 166.343 0.9469C168.755 2.08908 169.937 4.118 170.316 6.67253C170.427 7.41883 170.459 8.18117 170.462 8.93683C170.475 13.2608 170.467 17.5848 170.471 21.9074C170.471 22.2632 170.471 22.6243 170.53 22.9734C170.77 24.4152 171.529 25.0665 172.987 25.0973C173.632 25.1106 174.279 25.0999 175 25.0999V25.0986Z" fill="#2C6483"/>
<path d="M25.2415 45.5429C32.4598 33.1354 39.638 20.7947 46.8617 8.37646C47.7074 9.81556 48.5238 11.1931 49.3294 12.5787C50.8389 15.1747 52.3537 17.768 53.8351 20.3801C54.0412 20.7425 54.1349 21.2026 54.1603 21.6253C54.2098 22.4652 54.175 23.3104 54.0452 24.2065C51.6712 20.13 49.2972 16.0521 46.867 11.8792C44.2736 16.3356 41.7203 20.7251 39.1014 25.2257H54.1416V27.0232H36.1212C39.7397 33.245 43.2846 39.3398 46.8657 45.4974C49.2932 41.3272 51.6712 37.2413 54.0493 33.1568C54.0907 33.1688 54.1309 33.1795 54.1724 33.1915C54.1724 34.2281 54.1858 35.2632 54.1603 36.2998C54.155 36.5031 54.0131 36.7117 53.9047 36.9003C52.5906 39.1713 51.2711 41.4396 49.9101 43.7815H65.3866C65.2849 43.5688 65.1846 43.3575 65.0347 43.0432C65.6596 43.0432 66.2444 43.0245 66.8266 43.0579C66.9617 43.0659 67.1277 43.2251 67.2079 43.3575C67.6348 44.0583 68.0403 44.7725 68.49 45.5442H25.2415V45.5429Z" fill="#C48E1A"/>
</g>
<defs>
<clipPath id="clip0_140_8">
<rect width="175" height="55" fill="white"/>
</clipPath>
</defs>
</svg>
