<svg width="370" height="474" viewBox="0 0 370 474" fill="none" xmlns="http://www.w3.org/2000/svg">
<path d="M0 473.983C92.131 315.75 183.749 158.37 275.949 0C286.743 18.3528 297.162 35.921 307.445 53.5915C326.711 86.6982 346.046 119.771 364.954 153.082C367.584 157.704 368.78 163.572 369.105 168.962C369.737 179.673 369.292 190.453 367.636 201.881C337.335 149.893 307.035 97.8872 276.017 44.671C242.916 101.503 210.326 157.483 176.9 214.878H368.865V237.802H138.863C185.048 317.149 230.293 394.875 276 473.403C306.984 420.221 337.335 368.113 367.687 316.023C368.216 316.176 368.729 316.313 369.258 316.466C369.258 329.685 369.429 345.281 369.105 358.5C368.605 359 367.226 361.359 365.842 363.764C349.069 392.726 332.228 421.654 314.858 451.52H369C369 456.5 369 456 369 458.5C369 462 369 462 369 463C369 471.5 369 464 369 464C369 464 369 464.242 369 473.742L0 474V473.983Z" fill="white"/>
</svg>
